<svg width="259" height="45" viewBox="0 0 259 45" fill="none" xmlns="http://www.w3.org/2000/svg">
<path d="M20.9954 43.7969C14.511 43.7969 9.53058 42.0488 6.05402 38.5527C2.59698 35.0566 0.868469 29.7148 0.868469 22.5273C0.868469 15.3203 2.67511 9.98828 6.28839 6.53125C9.9212 3.05469 15.3607 1.31641 22.6068 1.31641H29.14C33.4564 1.31641 37.3431 2.35156 40.8001 4.42188C44.2767 6.47266 46.015 9.04102 46.015 12.127C46.015 13.2793 45.6732 14.1094 44.9896 14.6172C44.306 15.1055 43.6419 15.3496 42.9974 15.3496H39.511C37.8314 15.3496 36.4935 14.3926 35.4974 12.4785C34.5013 10.5645 32.0403 9.60742 28.1146 9.60742H22.8997C18.6224 9.60742 15.722 10.5254 14.1985 12.3613C12.6751 14.1973 11.9134 17.5762 11.9134 22.498C11.9134 27.4199 12.597 30.8281 13.9642 32.7227C15.3314 34.5977 17.7728 35.5352 21.2884 35.5352H27.2943C30.4388 35.5352 32.6849 34.9395 34.0325 33.748C35.3802 32.5371 36.0735 30.8086 36.1126 28.5625H29.4915C28.7298 28.5625 28.0755 28.2988 27.5286 27.7715C27.0013 27.2246 26.7376 26.5703 26.7376 25.8086V23.5234C26.7376 22.7617 27.0013 22.1172 27.5286 21.5898C28.0755 21.043 28.7298 20.7695 29.4915 20.7695H44.1985C44.9603 20.7695 45.6048 21.043 46.1321 21.5898C46.679 22.1172 46.9525 22.7617 46.9525 23.5234V26.7754C46.9525 32.2441 45.3118 36.4531 42.0306 39.4023C38.7493 42.332 33.9349 43.7969 27.5872 43.7969H20.9954ZM55.1263 39.9297C52.0794 37.1172 50.556 32.9766 50.556 27.5078C50.556 22.0195 52.0794 17.8789 55.1263 15.0859C58.1732 12.2734 62.5482 10.8672 68.2513 10.8672C73.9739 10.8672 78.3587 12.2734 81.4056 15.0859C84.4525 17.8789 85.9759 22.0195 85.9759 27.5078C85.9759 32.9766 84.4525 37.1172 81.4056 39.9297C78.3587 42.7422 73.9739 44.1484 68.2513 44.1484C62.5482 44.1484 58.1732 42.7422 55.1263 39.9297ZM62.5384 19.8906C61.3275 21.4727 60.722 24.002 60.722 27.4785C60.722 30.9551 61.3275 33.4941 62.5384 35.0957C63.7493 36.6973 65.6536 37.498 68.2513 37.498C70.8685 37.498 72.7825 36.6973 73.9935 35.0957C75.2239 33.4941 75.8392 30.9551 75.8392 27.4785C75.8392 24.002 75.2239 21.4727 73.9935 19.8906C72.7825 18.3086 70.8685 17.5176 68.2513 17.5176C65.6536 17.5176 63.7493 18.3086 62.5384 19.8906ZM91.9818 40.8672V4.39258C91.9818 3.5918 92.2552 2.91797 92.8021 2.37109C93.3489 1.82422 94.0032 1.55078 94.765 1.55078H111.142C119.618 1.55078 125.781 3.25 129.628 6.64844C133.495 10.0273 135.429 15.3398 135.429 22.5859C135.429 29.8125 133.495 35.1152 129.628 38.4941C125.781 41.873 119.618 43.5625 111.142 43.5625H94.765C94.0032 43.5625 93.3489 43.3086 92.8021 42.8008C92.2552 42.2734 91.9818 41.6289 91.9818 40.8672ZM103.027 35.2715H110.82C116.074 35.2715 119.648 34.3145 121.542 32.4004C123.437 30.4863 124.384 27.2148 124.384 22.5859C124.384 17.9375 123.437 14.6563 121.542 12.7422C119.648 10.8086 116.074 9.8418 110.82 9.8418H103.027V35.2715ZM163.056 18.8945L158.544 18.7188C155.908 18.7188 153.388 20.1641 150.986 23.0547V41.7754C150.986 42.3027 150.81 42.7324 150.458 43.0645C150.126 43.3965 149.706 43.5625 149.199 43.5625H142.636C142.109 43.5625 141.679 43.3965 141.347 43.0645C141.015 42.7324 140.849 42.3027 140.849 41.7754V13.2695C140.849 12.7422 141.015 12.3125 141.347 11.9805C141.699 11.6289 142.128 11.4531 142.636 11.4531H149.199C149.726 11.4531 150.156 11.6289 150.488 11.9805C150.82 12.3125 150.986 12.7422 150.986 13.2695V15.1152C152.978 13.6699 154.892 12.6055 156.728 11.9219C158.583 11.2188 161.005 10.8672 163.993 10.8672C164.521 10.8672 164.951 11.043 165.283 11.3945C165.634 11.7266 165.81 12.1465 165.81 12.6543V17.1074C165.81 17.6348 165.634 18.0645 165.283 18.3965C164.951 18.7285 164.521 18.8945 163.993 18.8945H163.056ZM170.029 5.33008V4.33398C170.029 3.29883 170.322 2.47852 170.908 1.87305C171.513 1.26758 172.343 0.964844 173.398 0.964844H177.031C178.066 0.964844 178.886 1.26758 179.492 1.87305C180.097 2.45898 180.4 3.2793 180.4 4.33398V5.33008C180.4 6.36523 180.097 7.18555 179.492 7.79102C178.906 8.39648 178.085 8.69922 177.031 8.69922H173.398C172.363 8.69922 171.542 8.39648 170.937 7.79102C170.331 7.18555 170.029 6.36523 170.029 5.33008ZM170.146 41.7754V13.9727C170.146 13.4453 170.312 13.0156 170.644 12.6836C170.995 12.3516 171.425 12.1855 171.933 12.1855H178.495C179.023 12.1855 179.452 12.3613 179.784 12.7129C180.117 13.0449 180.283 13.4648 180.283 13.9727V41.7754C180.283 42.3027 180.107 42.7324 179.755 43.0645C179.423 43.3965 179.003 43.5625 178.495 43.5625H171.933C171.406 43.5625 170.976 43.3965 170.644 43.0645C170.312 42.7324 170.146 42.3027 170.146 41.7754ZM186.113 11.4531H191.738C192.577 11.4531 193.368 11.6973 194.111 12.1855C194.853 12.6543 195.38 13.2695 195.693 14.0312L203.691 32.2832L211.659 14.0312C211.972 13.2695 212.499 12.6543 213.242 12.1855C213.984 11.6973 214.775 11.4531 215.615 11.4531H221.269C221.952 11.4531 222.402 11.707 222.617 12.2148C222.714 12.4102 222.753 12.6641 222.734 12.9766C222.734 13.2695 222.646 13.6211 222.47 14.0312L209.814 40.9844C209.462 41.7461 208.906 42.3711 208.144 42.8594C207.402 43.3281 206.63 43.5625 205.829 43.5625H201.523C200.722 43.5625 199.951 43.3281 199.208 42.8594C198.466 42.3711 197.919 41.7461 197.568 40.9844L184.911 14.0312C184.716 13.6016 184.618 13.2402 184.618 12.9473C184.618 11.9512 185.117 11.4531 186.113 11.4531ZM229.091 39.8711C226.083 37.0195 224.579 32.918 224.579 27.5664C224.579 22.1953 226.093 18.0742 229.12 15.2031C232.148 12.3125 236.347 10.8672 241.718 10.8672C247.089 10.8672 251.279 12.2734 254.286 15.0859C257.294 17.8789 258.798 21.8926 258.798 27.127V28.7969C258.798 29.3242 258.622 29.7637 258.271 30.1152C257.939 30.4473 257.509 30.6133 256.982 30.6133H234.921C235.117 33.0156 235.8 34.7637 236.972 35.8574C238.163 36.9512 240.058 37.498 242.656 37.498C245.253 37.498 247.031 36.9121 247.988 35.7402C248.945 34.5684 250.126 33.9727 251.533 33.9531H255.898C256.425 33.9531 256.855 34.1289 257.187 34.4805C257.538 34.8125 257.714 35.2422 257.714 35.7695C257.714 41.375 252.372 44.168 241.689 44.1484C236.298 44.1484 232.099 42.7227 229.091 39.8711ZM234.863 24.4316H248.486C248.29 19.8223 246.025 17.5176 241.689 17.5176C237.372 17.5176 235.097 19.8223 234.863 24.4316Z" fill="white"/>
</svg>
