<svg width="106" height="29" viewBox="0 0 106 29" fill="none" xmlns="http://www.w3.org/2000/svg">
<path d="M0.539062 1.84766C0.539062 1.33984 0.721354 0.903646 1.08594 0.539062C1.45052 0.174479 1.88672 -0.0078125 2.39453 -0.0078125H18.2734C22.1667 -0.0078125 25.0378 1.11198 26.8867 3.35156C27.9154 4.58854 28.4297 6.17057 28.4297 8.09766C28.4297 10.0117 27.5508 11.6849 25.793 13.1172C28.293 14.4583 29.543 16.5417 29.543 19.3672C29.543 22.1927 28.5404 24.3411 26.5352 25.8125C24.543 27.2708 22.0951 28 19.1914 28H2.39453C1.88672 28 1.45052 27.8242 1.08594 27.4727C0.721354 27.1081 0.539062 26.6719 0.539062 26.1641V1.84766ZM7.90234 22.7266H19.0742C20.0768 22.7266 20.8451 22.4271 21.3789 21.8281C21.9128 21.2292 22.1797 20.4089 22.1797 19.3672C22.1797 18.3255 21.9128 17.5052 21.3789 16.9062C20.8451 16.3073 20.0768 16.0078 19.0742 16.0078H7.90234V22.7266ZM7.90234 10.8711H18.3516C19.1719 10.8711 19.8294 10.6302 20.3242 10.1484C20.819 9.65365 21.0664 8.97005 21.0664 8.09766C21.0664 7.21224 20.819 6.52214 20.3242 6.02734C19.8294 5.53255 19.1719 5.28516 18.3516 5.28516H7.90234V10.8711ZM31.0469 27.3945C30.9948 27.2643 30.9688 27.1081 30.9688 26.9258C30.9688 26.7305 31.0729 26.5156 31.2812 26.2812L38.0781 17.2773L31.7305 8.3125C31.3138 7.76562 31.2878 7.28385 31.6523 6.86719C31.8086 6.6849 32.0299 6.59375 32.3164 6.59375H36.5547C37.8177 6.59375 38.8333 7.16667 39.6016 8.3125L42.8438 13.2344L46.0859 8.3125C46.8542 7.16667 47.8698 6.59375 49.1328 6.59375H53.3711C53.6576 6.59375 53.8789 6.6849 54.0352 6.86719C54.3997 7.28385 54.3737 7.76562 53.957 8.3125L47.6094 17.2773L54.4062 26.2812C54.6146 26.5156 54.7188 26.737 54.7188 26.9453C54.7188 27.1406 54.6927 27.2904 54.6406 27.3945C54.5365 27.7982 54.2565 28 53.8008 28H49.6406C48.4427 28 47.4271 27.4271 46.5938 26.2812L42.8438 21.2031L39.0742 26.2812C38.2539 27.4271 37.2448 28 36.0469 28H31.8867C31.431 28 31.151 27.7982 31.0469 27.3945ZM59.1719 25.5781C57.1406 23.7031 56.125 20.9427 56.125 17.2969C56.125 13.638 57.1406 10.8776 59.1719 9.01562C61.2031 7.14062 64.1198 6.20312 67.9219 6.20312C71.737 6.20312 74.6602 7.14062 76.6914 9.01562C78.7227 10.8776 79.7383 13.638 79.7383 17.2969C79.7383 20.9427 78.7227 23.7031 76.6914 25.5781C74.6602 27.4531 71.737 28.3906 67.9219 28.3906C64.1198 28.3906 61.2031 27.4531 59.1719 25.5781ZM64.1133 12.2188C63.306 13.2734 62.9023 14.9596 62.9023 17.2773C62.9023 19.5951 63.306 21.2878 64.1133 22.3555C64.9206 23.4232 66.1901 23.957 67.9219 23.957C69.6667 23.957 70.9427 23.4232 71.75 22.3555C72.5703 21.2878 72.9805 19.5951 72.9805 17.2773C72.9805 14.9596 72.5703 13.2734 71.75 12.2188C70.9427 11.1641 69.6667 10.6367 67.9219 10.6367C66.1901 10.6367 64.9206 11.1641 64.1133 12.2188ZM80.5586 26.8086V24.4844C80.5586 24.1328 80.6693 23.8464 80.8906 23.625C81.125 23.3906 81.418 23.2734 81.7695 23.2734H83.293L85.9688 12.5117C86.9583 8.56641 90.2266 6.59375 95.7734 6.59375H104.641C104.992 6.59375 105.279 6.71094 105.5 6.94531C105.734 7.16667 105.852 7.45312 105.852 7.80469V26.8086C105.852 27.1471 105.734 27.4336 105.5 27.668C105.279 27.8893 104.992 28 104.641 28H81.7695C81.418 28 81.125 27.8893 80.8906 27.668C80.6693 27.4336 80.5586 27.1471 80.5586 26.8086ZM89.6797 23.2734H99.0938V11.3203H95.5586C93.6706 11.3203 92.4727 12.2773 91.9648 14.1914L89.6797 23.2734Z" fill="black"/>
</svg>
